PathFileType	4	(X/Y/Z)	D:\TRACE\v60_Jaco2_6-2-23\JustBodyDRS_Motion3_5-platform.trc
DataRate	CameraRate	NumFrames	NumMarkers	Units	OrigDataRate	OrigDataStartFrame	OrigNumFrames
100.00	100.00	      61	5	mm	100.00	4376	      7000
Frame#	Time	Left_Front			Right_Front			Left_Aft			Right_Aft			Post			
		X1	Y1	Z1	X2	Y2	Z2	X3	Y3	Z3	X4	Y4	Z4	X5	Y5	Z5	

4376	43.750	-767.85474	7.23528	-651.58099	802.87927	5.69092	-628.70111	-698.99670	12.58665	482.73611	715.29974	10.92231	588.30402	27.93650	1303.48132	-969.00433	
4377	43.760	-767.95135	7.91214	-651.44403	802.43652	6.64283	-628.27661	-699.36365	12.17018	482.86453	715.12323	10.19651	588.53192	27.62072	1304.89148	-966.55981	
4378	43.770	-768.40308	9.33865	-650.99384	802.17365	7.55135	-628.09229	-699.83344	11.42259	483.21786	714.80609	9.27432	588.89575	27.10618	1306.60291	-964.57123	
4379	43.780	-768.61688	10.36937	-650.67896	801.84064	8.67771	-627.87384	-700.01587	10.59864	483.38156	714.42352	8.58829	588.99896	26.82388	1307.84399	-962.50281	
4380	43.790	-768.74664	11.13077	-650.36597	801.65283	9.64312	-627.66321	-700.44092	9.96250	483.53140	714.05652	7.70959	589.23602	26.30201	1309.38831	-960.85681	
4381	43.800	-769.12036	12.03649	-649.98834	801.30334	10.53156	-627.35016	-700.92651	9.54392	483.81760	713.66479	6.91420	589.42871	26.23587	1310.88599	-958.71674	
4382	43.810	-769.60669	12.85912	-650.07898	801.29010	11.39445	-627.33252	-701.12311	8.80287	484.02002	713.21423	5.94340	589.67072	25.73653	1312.15063	-957.04364	
4383	43.820	-770.24634	14.15735	-649.79071	800.52374	12.44093	-626.85620	-701.34802	7.99328	484.21216	713.03870	5.41784	589.89758	25.32129	1313.72559	-954.90979	
4384	43.830	-770.62091	15.31549	-649.58112	800.34155	13.54292	-626.51703	-701.80798	7.20208	484.54968	712.38318	4.54925	590.06049	24.64938	1314.96033	-953.01569	
4385	43.840	-770.86853	15.88123	-649.41614	799.79407	14.42224	-626.45654	-702.11584	6.63077	484.77884	712.09009	3.60010	590.23499	24.28857	1316.53650	-950.77283	
4386	43.850	-771.10718	17.01322	-649.35516	799.62646	15.33429	-626.08569	-702.44720	6.16218	485.09198	711.97083	3.11595	590.48407	23.99602	1317.47546	-948.66162	
4387	43.860	-770.93329	18.01296	-648.84424	799.22455	16.09765	-626.04462	-702.75189	5.49072	485.27829	711.73633	2.30195	590.78528	23.89946	1318.98242	-946.35968	
4388	43.870	-771.64966	18.57865	-648.78290	799.00946	17.21467	-625.80615	-703.02643	4.81162	485.36963	711.43524	1.60043	590.94855	23.28355	1320.18799	-944.27081	
4389	43.880	-772.06372	19.33671	-648.31378	798.64648	17.80990	-625.66937	-702.99921	4.28858	485.43250	710.83441	0.76698	591.15887	23.10461	1321.39404	-941.98889	
4390	43.890	-772.26477	20.23767	-647.97278	798.35028	18.85236	-625.29279	-703.60199	3.57190	485.66843	710.79779	0.13913	591.27234	22.44336	1322.47339	-940.00317	
4391	43.900	-772.56689	21.24537	-648.02277	797.95654	19.42693	-625.20416	-703.84338	3.03571	485.95071	710.45166	-0.52983	591.44733	22.60012	1323.83337	-938.12134	
4392	43.910	-772.71240	22.07065	-648.03326	797.42584	20.48302	-624.75342	-704.08887	2.52982	486.10040	710.23273	-1.25096	591.82031	21.93191	1325.03271	-936.21344	
4393	43.920	-772.88416	22.85746	-647.58972	797.51990	21.14622	-624.81854	-704.44727	1.78672	486.19907	709.98047	-1.61068	591.83435	21.84535	1326.14197	-934.44788	
4394	43.930	-773.26410	23.13370	-647.61908	797.30945	21.99779	-624.67200	-704.75305	1.77803	486.38043	709.81030	-2.51028	592.12451	21.44576	1327.12537	-933.04370	
4395	43.940	-773.53302	24.06291	-647.26514	797.01349	22.69091	-624.43933	-704.97186	1.25159	486.53476	709.74805	-3.35667	592.11957	21.43056	1328.48352	-931.42377	
4396	43.950	-773.68945	25.13270	-647.21545	797.04083	23.45694	-624.21228	-705.22314	0.76220	486.46603	709.50488	-3.72062	592.30255	21.34859	1329.51404	-930.02692	
4397	43.960	-773.74243	26.00390	-647.10693	796.82465	24.12647	-624.03027	-705.25970	0.12856	486.65942	709.29242	-4.12480	592.45416	20.99468	1330.56873	-928.24036	
4398	43.970	-773.97968	26.68622	-646.90338	796.48175	24.85946	-623.87769	-705.48608	-0.34755	486.90857	709.16565	-4.78271	592.77307	21.07614	1331.69653	-927.01550	
4399	43.980	-774.21008	27.05443	-646.74176	796.34851	25.59235	-623.66443	-705.53229	-0.75435	487.09552	708.77850	-5.55926	592.95398	20.69739	1332.41565	-925.66919	
4400	43.990	-774.42090	27.86377	-646.25507	796.18848	26.18971	-623.53699	-705.79779	-1.22288	487.16089	708.42877	-6.14226	592.93048	20.68829	1333.42480	-923.95587	
4401	44.000	-774.51093	28.65948	-646.17749	796.02216	26.73140	-623.33380	-705.95648	-1.64060	487.40286	708.41528	-6.50964	593.05920	20.32078	1334.27148	-922.50641	
4402	44.010	-774.96576	29.61294	-645.91418	795.85327	27.40208	-623.21564	-706.02014	-2.04832	487.61365	708.32678	-6.96981	593.21765	19.94146	1335.15735	-920.78894	
4403	44.020	-774.82959	30.03734	-645.94928	795.82379	28.03428	-623.05829	-706.14166	-2.52686	487.64203	708.06409	-7.55879	593.55243	19.85698	1336.06543	-919.37671	
4404	44.030	-774.87744	30.31457	-645.75830	795.85394	28.54523	-622.87024	-706.19830	-2.96903	487.81552	708.33508	-8.06474	593.69464	19.96915	1336.96948	-918.06458	
4405	44.040	-774.92731	30.78479	-645.51196	795.66217	29.07656	-622.70465	-706.33258	-3.48849	488.05499	708.30212	-8.49190	593.73279	19.84002	1337.39136	-916.52344	
4406	44.050	-774.51337	31.35901	-645.09491	795.54547	29.47867	-622.54266	-706.46088	-3.85794	488.12805	708.63446	-8.79655	593.64130	19.87124	1338.46448	-915.54810	
4407	44.060	-774.88263	31.86197	-645.32294	795.53137	30.08326	-622.43292	-706.58856	-4.04889	488.10931	708.26080	-9.28598	593.79761	19.95270	1339.23181	-914.42822	
4408	44.070	-774.93323	32.16114	-645.24280	795.41742	30.64533	-622.27881	-706.74103	-4.32357	488.19833	707.98938	-9.79827	593.67548	19.96759	1339.99048	-913.24860	
4409	44.080	-774.98907	32.92952	-644.99005	795.46320	31.08673	-622.11450	-706.82007	-4.77878	488.46719	707.93024	-10.37831	593.90149	19.68369	1340.70068	-912.15302	
4410	44.090	-775.02008	33.54818	-644.80499	795.45886	31.52646	-621.95355	-706.76447	-5.02645	488.59409	707.97046	-10.62853	594.06757	19.65314	1341.52148	-911.21179	
4411	44.100	-775.17499	33.72761	-644.74670	795.48297	31.88745	-621.89642	-706.82208	-5.27578	488.57327	707.92480	-10.90920	594.22125	19.87059	1341.98047	-909.99756	
4412	44.110	-775.05499	34.07660	-644.77087	795.43280	32.26549	-621.80646	-706.88922	-5.41439	488.46945	707.93555	-11.15142	594.37939	19.43651	1342.12720	-909.18073	
4413	44.120	-774.85333	34.53539	-644.73016	795.41034	32.59442	-621.73004	-706.68298	-5.94952	488.49774	708.02161	-11.34164	594.44934	19.38844	1342.67383	-908.13934	
4414	44.130	-774.89331	34.90397	-644.54181	795.40942	32.92759	-621.71265	-706.67120	-6.18331	488.58206	707.95844	-11.56294	594.47607	19.44961	1343.16577	-907.48175	
4415	44.140	-775.09454	35.27488	-644.36377	795.35052	33.38920	-621.60352	-706.64996	-6.39209	488.66956	707.87640	-11.88014	594.51215	19.39384	1343.72559	-906.80505	
4416	44.150	-775.09241	35.59915	-644.12964	795.38654	33.71190	-621.47571	-706.63696	-6.59977	488.74094	707.81995	-12.26750	594.56281	19.51152	1344.24719	-906.30499	
4417	44.160	-775.05670	35.78490	-644.10919	795.28735	34.04101	-621.28162	-706.67889	-6.77569	488.82806	707.69696	-12.59963	594.70294	19.39571	1344.56348	-905.91040	
4418	44.170	-774.97980	35.72015	-644.35553	795.42841	34.16085	-621.27032	-706.73944	-7.01081	488.99506	707.66394	-12.91663	594.75983	19.33970	1345.06567	-905.35315	
4419	44.180	-774.94910	36.10908	-644.15369	795.39514	34.45536	-621.21393	-706.91534	-6.96967	489.20944	707.75757	-13.18226	594.80255	19.32619	1345.46497	-905.05029	
4420	44.190	-774.80695	36.68413	-643.78540	795.53076	34.84652	-621.09869	-706.75409	-7.14985	489.21799	707.79370	-13.43203	594.91193	19.36648	1346.22815	-904.20953	
4421	44.200	-774.71899	37.09211	-643.82275	795.74255	35.13977	-621.07092	-706.41327	-7.53289	489.22104	708.00415	-13.68423	594.95282	19.64119	1346.52356	-903.82440	
4422	44.210	-774.61859	37.36243	-643.79419	796.02545	35.34683	-620.91431	-706.07306	-7.84258	489.24246	708.30060	-13.84667	594.89679	19.92690	1346.64514	-903.12280	
4423	44.220	-774.48932	37.63683	-643.68640	796.25000	35.47606	-620.77448	-706.12274	-7.70013	489.14218	708.58624	-13.97949	594.95013	20.05300	1346.78064	-902.66760	
4424	44.230	-774.30768	37.87489	-643.78638	796.35095	35.58755	-620.69977	-705.96094	-7.82714	489.27634	708.76471	-14.06445	595.01733	20.14997	1346.97949	-901.60913	
4425	44.240	-774.15674	37.98379	-643.86493	796.53632	35.69802	-620.63245	-705.77960	-7.94306	489.37253	709.04742	-14.18795	595.10461	20.58042	1347.15479	-900.90198	
4426	44.250	-774.05890	38.08274	-643.82257	796.74194	35.87700	-620.59052	-705.66595	-7.96876	489.32391	709.16693	-14.25451	595.13116	20.60201	1347.42737	-900.36804	
4427	44.260	-773.85529	37.97898	-643.99860	796.91669	35.97020	-620.60760	-705.50098	-8.08164	489.28101	709.28339	-14.34381	595.17896	20.72608	1347.46680	-900.13312	
4428	44.270	-773.72156	38.06232	-643.96100	797.13342	36.02540	-620.60767	-705.30884	-8.15711	489.35941	709.39178	-14.45041	595.20142	20.96656	1347.47864	-900.03326	
4429	44.280	-773.60590	38.11602	-643.97687	797.26239	36.05274	-620.58643	-705.08856	-8.20401	489.41983	709.53003	-14.56912	595.23761	21.31902	1347.57654	-899.96039	
4430	44.290	-773.22693	38.28096	-643.73999	797.39868	36.10532	-620.56274	-704.92566	-8.24886	489.44601	709.73303	-14.63567	595.25793	21.84298	1347.83118	-900.22467	
4431	44.300	-772.89935	38.57780	-643.55884	797.64130	36.32300	-620.47418	-704.77881	-8.25102	489.34686	709.95996	-14.69277	595.27667	22.02623	1348.09607	-900.26447	
4432	44.310	-772.67590	38.75047	-643.44476	797.82501	36.43904	-620.48865	-704.56812	-8.29935	489.31668	710.11218	-14.78883	595.25067	21.96079	1348.30212	-900.65332	
4433	44.320	-772.53473	38.82215	-643.30957	798.05774	36.55427	-620.46344	-704.20758	-8.44277	489.41992	710.26355	-14.78315	595.29187	21.93824	1348.45972	-900.76434	
4434	44.330	-772.33716	38.88811	-643.11328	798.23975	36.57600	-620.45050	-703.95734	-8.53772	489.45026	710.41199	-14.80914	595.30371	22.06667	1348.53259	-900.76276	
4435	44.340	-772.14923	38.86742	-643.05756	798.45593	36.59811	-620.43323	-703.82275	-8.54489	489.55716	710.68347	-14.76852	595.45947	22.31855	1348.52222	-900.53870	
4436	44.350	-771.99744	38.84781	-643.10901	798.75061	36.69536	-620.28644	-703.53998	-8.73835	489.53543	710.94318	-14.80925	595.48950	22.52623	1348.53772	-900.33673	
